<svg xmlns="http://www.w3.org/2000/svg" viewBox="0 0 160 160">
  <defs>
    <mask id="ko">
      <rect width="160" height="160" fill="#FFFFFF"/>
      <path d="M59.07 113.67Q57.35 112.88 57.35 110.24L57.22 109.32Q57.22 106.94 59.27 106.21Q61.31 105.49 65.28 105.49Q68.97 105.49 70.95 105.75Q74.39 95.98 75.84 83.57Q68.84 84.49 68.05 84.89Q67.26 85.28 66.46 85.28Q65.54 85.28 63.49 83.63Q61.45 81.98 61.45 80.26Q61.45 78.68 64.68 72.94Q67.92 67.19 73.6 51.87Q66.46 52.93 64.75 52.93Q62.9 52.93 61.25 51.54Q59.6 50.16 58.81 48.31Q58.28 47.38 58.01 46.59Q57.48 46.99 56.69 47.12L36.62 48.17Q35.96 49.63 33.71 53.59Q29.88 60.19 26.85 64.29Q26.98 64.29 27.11 64.29Q28.17 64.29 29.16 64.62Q30.15 64.95 33.32 64.95Q48.64 64.55 51.41 63.1L53.39 62.96Q54.58 62.96 57.22 65.34Q59.86 67.72 59.86 69.3Q59.86 72.34 56.03 72.34L45.47 73.13L45.34 89.24Q53.26 88.72 54.38 88.25Q55.5 87.79 56.16 87.79Q57.35 87.79 59.07 88.98Q63.03 91.88 63.03 94.53Q63.03 96.64 59.47 97.04L45.2 97.96L45.07 121.6Q51.54 118.3 56.69 114.73Q58.01 113.94 59.07 113.67ZM101.99 116.18Q101.99 114.6 102.45 112.55Q102.91 110.5 102.91 102.98L90.76 103.64Q88.52 103.64 87.46 102.85Q83.9 100.86 82.84 97.17Q82.84 95.45 84.42 95.45Q85.22 95.45 86.21 95.71Q87.2 95.98 89.84 95.98L102.91 95.32L103.04 88.58L96.31 89.11Q92.08 89.11 90.89 88.19Q87.46 85.15 87.46 82.38Q87.46 80.66 88.78 80.66Q89.44 80.66 90.43 80.99Q91.42 81.32 93.67 81.32L103.04 80.79L103.04 74.06L96.97 74.59Q91.29 74.59 89.44 69.04Q89.31 68.64 89.31 68.12Q89.31 66.53 91.03 66.53Q92.61 66.93 94.86 66.93L103.18 66.4L103.18 58.47L89.97 59.27Q85.74 59.27 83.63 54.91L82.84 53.32Q82.84 51.74 84.42 51.74Q87.06 52.27 88.78 52.27L103.18 51.34L103.18 44.48L96.57 45.01Q89.71 45.01 87.46 38.4Q87.46 37.08 89.31 37.08Q92.74 37.48 94.2 37.48L103.31 36.69L103.31 30.35Q103.31 26.12 101.72 24.27Q101.06 23.22 101.06 22.56Q101.06 20.84 103.97 20.84Q106.21 20.84 108.92 22.42Q111.63 24.01 111.63 26.39L111.63 36.29L122.72 35.37Q125.23 35.37 126.88 37.41Q128.53 39.46 128.53 40.52Q128.53 41.7 128.07 42.5Q127.61 43.29 127.08 49.5L130.51 48.57Q133.02 48.57 135.33 50.68Q137.64 52.8 137.64 54.38Q137.64 56.36 134.34 56.76L126.42 57.29L125.63 65.47Q128.53 68.91 128.53 70.23Q128.53 71.94 127.14 72.27Q125.76 72.6 111.5 73.66L111.5 80.4Q119.29 79.87 121.2 79.14Q123.12 78.42 124.3 78.42Q125.63 78.42 127.28 79.6Q128.93 80.79 130.05 82.24Q131.17 83.7 131.17 84.75Q131.17 86.87 127.74 87.26L111.5 88.19L111.5 94.92Q123.91 94.39 125.63 93.73Q129.45 92.41 130.51 92.41Q131.44 92.41 133.15 93.6Q137.91 96.51 137.91 99.02Q137.91 101.13 134.6 101.53L111.5 102.71L111.5 117.37Q111.5 121.2 108.99 121.2Q106.48 121.2 104.23 119.62Q101.99 118.03 101.99 116.18ZM111.63 50.82L118.89 50.29L119.42 43.29L111.63 43.95ZM111.63 66L117.57 65.47L118.23 57.68L111.63 58.08ZM36.62 136.52Q34.51 136.52 32.66 132.56Q31.07 129.26 31.07 128.33Q31.07 126.75 32.59 126.68Q34.11 126.62 35.83 125.96L36.09 98.22L26.72 98.75Q24.6 98.75 22.69 96.97Q20.77 95.19 20.18 93.34Q19.58 91.49 19.58 91.09Q19.58 89.38 21.57 89.38L25.66 90.04L36.09 89.51L36.22 73.53L31.73 73.53Q30.02 73.53 28.43 71.94Q25.66 69.3 25.4 66.27Q21.83 70.89 19.98 70.89Q18 70.89 18 68.91Q18 67.45 20.38 63.36Q25.92 53.99 30.08 42.69Q34.24 31.4 34.24 25.2Q34.24 22.82 36.62 22.82Q37.94 22.82 39.66 24.14Q44.15 27.05 44.15 29.69Q44.15 32.06 40.85 39.33L44.94 39.06Q46.39 38.93 48.77 38.07Q51.15 37.21 52.2 37.21Q54.98 37.21 56.96 39.86Q58.81 42.23 59.07 43.95Q59.2 43.95 59.47 43.95L64.35 44.48Q66.2 44.48 72.27 43.62Q78.35 42.76 79.14 42.76Q80.86 42.76 82.97 44.15Q85.08 45.53 85.08 47.25Q85.08 48.83 84.23 49.83Q83.37 50.82 80.07 59.07Q76.76 67.32 72.54 75.77L80.59 74.72Q84.16 74.72 85.28 76.76Q86.4 78.81 86.4 79.6Q86.4 80.53 85.94 81.25Q85.48 81.98 84.69 86.21Q82.84 97.7 79.01 108.13Q80.99 108.79 89.24 113.48Q97.5 118.16 110.17 122.72Q122.85 127.28 138.83 128.33Q142 128.46 142 130.45Q142 132.95 138.96 136.65Q137.38 138.37 135.53 138.37L131.3 137.71Q108.46 134.01 81.52 118.96Q77.69 116.58 75.84 115.79Q70.03 127.94 63.43 135.73Q60.39 139.16 58.67 139.16Q57.09 139.16 57.09 137.18Q57.09 135.73 58.81 132.82Q64.62 123.31 68.18 113.54L67.12 113.54Q62.37 113.94 61.18 114.07Q61.97 114.6 61.97 115.92Q61.97 117.37 59.33 119.88Q52.47 126.48 45.86 131.5Q39.26 136.52 36.62 136.52Z" fill="#000000" stroke="#000000" stroke-width="3.8" stroke-linejoin="round"/>
    </mask>
  </defs>
  <rect width="160" height="160" rx="40" fill="#000000" mask="url(#ko)"/>
</svg>
