<svg xmlns="http://www.w3.org/2000/svg" viewBox="0 0 160 160">
  <defs>
    <radialGradient id="seal" cx="0.34" cy="0.28" r="1.1">
      <stop offset="0" stop-color="#C7452F"/>
      <stop offset="1" stop-color="#9C2C1C"/>
    </radialGradient>
  </defs>
  <rect width="160" height="160" rx="36" fill="url(#seal)"/>
  <rect x="14" y="14" width="132" height="132" rx="23" fill="none" stroke="#F6EDE0" stroke-opacity="0.92" stroke-width="3"/>
  <path d="M63.3 107.07Q61.97 106.46 61.97 104.41L61.86 103.7Q61.86 101.86 63.45 101.29Q65.03 100.73 68.1 100.73Q70.96 100.73 72.5 100.94Q75.15 93.37 76.28 83.76Q70.86 84.48 70.25 84.78Q69.63 85.09 69.02 85.09Q68.31 85.09 66.72 83.81Q65.14 82.53 65.14 81.2Q65.14 79.98 67.64 75.53Q70.15 71.08 74.54 59.22Q69.02 60.04 67.69 60.04Q66.26 60.04 64.98 58.97Q63.7 57.89 63.09 56.46Q62.68 55.75 62.48 55.13Q62.07 55.44 61.46 55.54L45.92 56.36Q45.4 57.49 43.67 60.55Q40.7 65.66 38.35 68.83Q38.45 68.83 38.55 68.83Q39.37 68.83 40.14 69.09Q40.91 69.35 43.36 69.35Q55.22 69.04 57.37 67.91L58.9 67.81Q59.82 67.81 61.86 69.65Q63.91 71.49 63.91 72.72Q63.91 75.07 60.94 75.07L52.77 75.68L52.66 88.16Q58.8 87.75 59.67 87.39Q60.54 87.03 61.05 87.03Q61.97 87.03 63.3 87.95Q66.36 90.2 66.36 92.25Q66.36 93.88 63.6 94.19L52.56 94.9L52.46 113.2Q57.47 110.65 61.46 107.89Q62.48 107.27 63.3 107.07ZM96.52 109.01Q96.52 107.79 96.88 106.2Q97.24 104.62 97.24 98.79L87.83 99.3Q86.09 99.3 85.28 98.69Q82.52 97.15 81.7 94.29Q81.7 92.96 82.92 92.96Q83.54 92.96 84.31 93.17Q85.07 93.37 87.12 93.37L97.24 92.86L97.34 87.65L92.13 88.05Q88.85 88.05 87.93 87.34Q85.28 84.99 85.28 82.84Q85.28 81.51 86.3 81.51Q86.81 81.51 87.58 81.77Q88.34 82.02 90.08 82.02L97.34 81.61L97.34 76.4L92.64 76.81Q88.24 76.81 86.81 72.51Q86.71 72.21 86.71 71.8Q86.71 70.57 88.04 70.57Q89.26 70.88 91 70.88L97.44 70.47L97.44 64.34L87.22 64.95Q83.95 64.95 82.31 61.58L81.7 60.35Q81.7 59.12 82.92 59.12Q84.97 59.53 86.3 59.53L97.44 58.81L97.44 53.5L92.33 53.91Q87.01 53.91 85.28 48.8Q85.28 47.77 86.71 47.77Q89.37 48.08 90.49 48.08L97.54 47.47L97.54 42.56Q97.54 39.29 96.32 37.86Q95.81 37.04 95.81 36.53Q95.81 35.2 98.06 35.2Q99.79 35.2 101.89 36.42Q103.99 37.65 103.99 39.49L103.99 47.16L112.57 46.44Q114.52 46.44 115.79 48.03Q117.07 49.61 117.07 50.43Q117.07 51.35 116.71 51.96Q116.36 52.58 115.95 57.38L118.61 56.67Q120.55 56.67 122.34 58.3Q124.13 59.94 124.13 61.17Q124.13 62.7 121.57 63.01L115.44 63.42L114.82 69.75Q117.07 72.41 117.07 73.43Q117.07 74.76 116 75.02Q114.92 75.27 103.88 76.09L103.88 81.31Q109.92 80.9 111.4 80.34Q112.88 79.77 113.8 79.77Q114.82 79.77 116.1 80.69Q117.38 81.61 118.25 82.74Q119.12 83.86 119.12 84.68Q119.12 86.32 116.46 86.62L103.88 87.34L103.88 92.55Q113.49 92.14 114.82 91.63Q117.79 90.61 118.61 90.61Q119.32 90.61 120.65 91.53Q124.33 93.78 124.33 95.72Q124.33 97.36 121.77 97.66L103.88 98.58L103.88 109.93Q103.88 112.9 101.94 112.9Q100 112.9 98.26 111.67Q96.52 110.44 96.52 109.01ZM103.99 58.41L109.61 58L110.02 52.58L103.99 53.09ZM103.99 70.16L108.59 69.75L109.1 63.72L103.99 64.03ZM45.92 124.76Q44.28 124.76 42.85 121.69Q41.62 119.13 41.62 118.42Q41.62 117.19 42.8 117.14Q43.97 117.09 45.3 116.58L45.51 95.11L38.25 95.52Q36.61 95.52 35.13 94.14Q33.65 92.76 33.19 91.33Q32.73 89.89 32.73 89.59Q32.73 88.26 34.26 88.26L37.43 88.77L45.51 88.36L45.61 75.99L42.13 75.99Q40.8 75.99 39.58 74.76Q37.43 72.72 37.23 70.37Q34.46 73.95 33.03 73.95Q31.5 73.95 31.5 72.41Q31.5 71.29 33.34 68.12Q37.63 60.86 40.85 52.12Q44.08 43.38 44.08 38.57Q44.08 36.73 45.92 36.73Q46.94 36.73 48.27 37.75Q51.74 40 51.74 42.05Q51.74 43.89 49.19 49.51L52.36 49.31Q53.48 49.2 55.32 48.54Q57.16 47.88 57.98 47.88Q60.13 47.88 61.66 49.92Q63.09 51.76 63.3 53.09Q63.4 53.09 63.6 53.09L67.38 53.5Q68.82 53.5 73.52 52.83Q78.22 52.17 78.84 52.17Q80.16 52.17 81.8 53.24Q83.44 54.32 83.44 55.65Q83.44 56.87 82.77 57.64Q82.11 58.41 79.55 64.8Q77 71.19 73.72 77.73L79.96 76.91Q82.72 76.91 83.59 78.5Q84.46 80.08 84.46 80.69Q84.46 81.41 84.1 81.97Q83.74 82.53 83.13 85.81Q81.7 94.7 78.73 102.78Q80.27 103.29 86.66 106.92Q93.05 110.55 102.86 114.07Q112.68 117.6 125.05 118.42Q127.5 118.52 127.5 120.05Q127.5 122 125.15 124.86Q123.92 126.19 122.49 126.19L119.22 125.68Q101.53 122.81 80.68 111.16Q77.71 109.32 76.28 108.71Q71.78 118.11 66.67 124.14Q64.32 126.8 62.99 126.8Q61.76 126.8 61.76 125.27Q61.76 124.14 63.09 121.89Q67.59 114.53 70.35 106.97L69.53 106.97Q65.85 107.27 64.93 107.38Q65.54 107.79 65.54 108.81Q65.54 109.93 63.5 111.88Q58.18 116.99 53.07 120.87Q47.96 124.76 45.92 124.76Z" fill="#F9F1E4" stroke="#F9F1E4" stroke-width="1.6" stroke-linejoin="round"/>
</svg>
